<?xml version="1.0" standalone="no"?>
<!DOCTYPE svg PUBLIC "-//W3C//DTD SVG 20010904//EN"
 "http://www.w3.org/TR/2001/REC-SVG-20010904/DTD/svg10.dtd">
<svg version="1.0" xmlns="http://www.w3.org/2000/svg"
 width="448.000000pt" height="448.000000pt" viewBox="0 0 448.000000 448.000000"
 preserveAspectRatio="xMidYMid meet">
<metadata>
Created by potrace 1.14, written by Peter Selinger 2001-2017
</metadata>
<g transform="translate(0.000000,448.000000) scale(0.100000,-0.100000)"
fill="#000000" stroke="none">
<path d="M348 3470 l-25 -19 0 -1185 0 -1185 24 -23 25 -23 1941 0 c1926 0
1942 0 1969 20 l27 20 1 1187 0 1187 -26 20 c-26 20 -27 20 -1969 21 -1912 0
-1943 -1 -1967 -20z m3642 -80 c123 0 170 -4 183 -14 17 -13 18 -63 17 -966 0
-689 -3 -957 -11 -966 -10 -12 -319 -14 -1863 -14 -1751 0 -1852 1 -1866 18
-13 15 -15 144 -14 966 1 916 2 949 20 960 32 19 1126 24 3534 16z"/>
<path d="M2496 3165 c-14 -13 -31 -36 -36 -50 -6 -16 -10 -196 -10 -455 0
-440 -1 -454 -38 -431 -10 6 -66 167 -131 381 -18 58 -36 116 -41 130 -5 14
-18 59 -30 100 -12 41 -26 84 -31 95 -5 11 -18 47 -30 80 -25 68 -80 142 -116
156 -16 6 -38 6 -59 0 -36 -10 -67 -35 -57 -45 4 -3 2 -6 -4 -6 -13 0 -95
-208 -87 -221 3 -5 1 -9 -4 -9 -6 0 -13 -16 -17 -36 -3 -20 -10 -44 -15 -53
-11 -23 -123 -363 -125 -381 -1 -8 -6 -24 -12 -35 -5 -11 -20 -48 -32 -82 -13
-34 -29 -64 -37 -67 -17 -7 -161 147 -181 194 -21 50 -3 96 67 175 84 96 106
199 69 325 -21 72 -106 149 -203 184 -42 16 -80 26 -83 22 -3 -3 -11 -2 -17 3
-15 13 -113 22 -291 29 -283 10 -318 7 -352 -33 l-23 -26 0 -667 c0 -632 1
-668 19 -691 12 -16 30 -25 53 -26 20 -1 40 -5 45 -8 9 -6 276 -4 413 3 75 3
171 20 240 43 98 32 100 31 114 -25 17 -74 69 2 141 207 29 83 42 107 76 138
23 20 44 36 46 34 2 -3 29 2 61 10 63 15 391 21 452 8 115 -25 151 -72 210
-275 8 -25 17 -49 21 -54 4 -5 5 -14 3 -20 -6 -16 41 -59 67 -63 21 -3 21 -1
14 83 -9 110 -9 768 0 837 8 61 49 152 71 161 65 25 191 -184 259 -429 10 -33
20 -67 23 -75 3 -8 6 -22 8 -31 5 -22 30 -113 52 -191 11 -36 18 -69 14 -72
-3 -3 -1 -6 4 -6 5 0 10 -10 10 -23 1 -13 11 -45 23 -72 53 -122 84 -158 130
-158 44 0 60 22 95 131 34 109 90 267 122 350 13 35 22 68 19 73 -4 5 -2 9 4
9 6 0 14 15 19 33 17 58 83 221 120 295 55 109 58 115 91 146 27 26 34 28 55
18 28 -12 60 -77 71 -142 4 -23 7 -232 7 -465 l0 -423 22 -21 23 -21 19 21
c18 20 19 46 22 688 2 639 1 667 -17 697 -26 43 -91 61 -141 40 -19 -8 -42
-23 -50 -33 -15 -19 -21 -33 -67 -158 -13 -38 -29 -79 -33 -90 -4 -11 -13 -33
-19 -50 -6 -16 -16 -43 -22 -60 -7 -16 -13 -32 -14 -35 -1 -3 -5 -14 -9 -25
-43 -114 -67 -180 -85 -230 -12 -33 -29 -75 -37 -93 -9 -19 -13 -36 -10 -40 3
-3 0 -12 -8 -21 -7 -9 -23 -45 -34 -80 -51 -153 -122 -208 -195 -151 -25 20
-97 157 -97 185 0 8 -4 24 -9 37 -5 13 -23 64 -41 113 -30 87 -60 168 -76 210
-4 11 -8 22 -8 25 -2 7 -26 70 -41 105 -7 17 -19 49 -26 73 -7 23 -16 42 -21
42 -5 0 -7 4 -4 9 5 8 -12 52 -54 134 -11 22 -20 45 -20 53 0 7 -17 31 -38 54
-34 35 -44 40 -84 40 -34 0 -52 -6 -72 -25z m-1446 -79 c274 -16 423 -145 386
-334 -14 -72 -99 -156 -191 -189 -49 -18 -70 -24 -70 -22 0 1 -11 -3 -24 -10
-13 -8 -45 -15 -70 -18 -25 -3 -75 -8 -111 -12 -148 -15 -276 36 -288 114 -2
11 -8 43 -13 70 -13 64 -14 165 -3 235 4 30 8 60 9 65 0 19 47 64 83 81 38 18
126 32 177 27 17 -1 68 -4 115 -7z m1017 -183 c30 -46 82 -162 111 -248 6 -16
14 -39 18 -50 4 -11 7 -23 6 -27 -1 -4 3 -20 9 -35 22 -57 39 -134 35 -165 -5
-44 -53 -92 -112 -109 -61 -18 -217 -18 -267 -1 -20 8 -51 27 -67 44 -48 47
-42 108 31 301 16 43 27 83 23 88 -3 5 0 9 5 9 6 0 11 5 11 11 0 13 19 58 63
149 43 88 89 99 134 33z m-1031 -482 c32 0 86 -7 119 -15 33 -8 63 -12 67 -10
5 3 8 1 8 -5 0 -5 14 -12 30 -16 51 -11 91 -36 139 -85 49 -50 74 -80 67 -80
-2 0 2 -19 9 -42 12 -43 12 -108 -1 -138 -4 -8 -8 -21 -10 -28 -4 -21 -52 -80
-88 -107 -42 -32 -150 -75 -188 -75 -15 0 -28 -3 -28 -7 0 -9 -10 -9 -215 -13
-188 -3 -214 8 -269 119 -19 41 -23 189 -7 311 5 41 7 78 5 82 -3 4 0 8 5 8 6
0 11 5 11 12 0 19 62 68 100 78 66 17 145 26 166 19 12 -4 48 -8 80 -8z"/>
<path d="M1895 877 c-2 -7 -6 -41 -9 -75 -10 -107 -50 -167 -142 -211 -27 -13
-55 -26 -62 -30 -49 -23 18 -26 636 -29 373 -1 652 2 652 7 0 13 -21 26 -68
41 -93 29 -160 142 -166 280 l-1 25 -418 2 c-314 1 -419 -1 -422 -10z"/>
</g>
</svg>
